<svg xmlns="http://www.w3.org/2000/svg" width="24" height="23.912" viewBox="0 0 24 23.912">
  <path id="email" d="M25.65,16.211a12.017,12.017,0,0,0,.606,23.656,1.591,1.591,0,0,0,1.812-1.578v-.033a1.58,1.58,0,0,0-1.345-1.565,8.83,8.83,0,0,1,2.214-17.514,9.094,9.094,0,0,1,7.945,9.178v.81a2,2,0,1,1-4.008,0V23.147a.8.8,0,0,0-.8-.8h-1.6a.791.791,0,0,0-.757.585,5.428,5.428,0,0,0-4.311-.256,5.61,5.61,0,0,0,1.863,10.9,5.557,5.557,0,0,0,3.486-1.246,5.212,5.212,0,0,0,5.481,1.878,5.158,5.158,0,0,0,3.811-5.15V28.012A11.987,11.987,0,0,0,25.65,16.211Zm1.568,14.206a2.407,2.407,0,1,1,2.4-2.407A2.379,2.379,0,0,1,27.218,30.417Z" transform="translate(-16.044 -15.972)" fill="#fff"/>
</svg>
