<svg xmlns="http://www.w3.org/2000/svg" width="24" height="19.043" viewBox="0 0 24 19.043">
  <path id="medium-m-brands" d="M17.043,67.885a.937.937,0,0,0-.3-.784L14.5,64.4V64h6.956l5.379,11.794L31.566,64H38.2v.4l-1.915,1.836a.559.559,0,0,0-.213.536v13.5a.559.559,0,0,0,.213.536l1.871,1.836v.4H28.743v-.4l1.94-1.881c.189-.189.189-.248.189-.536V69.319L25.478,83.008h-.729L18.477,69.319v9.174a1.25,1.25,0,0,0,.347,1.052L21.345,82.6V83H14.2v-.4l2.521-3.061a1.209,1.209,0,0,0,.323-1.052Z" transform="translate(-14.2 -64)" fill="#fff"/>
</svg>
